<svg width="553" height="625" viewBox="0 0 553 625" fill="none" xmlns="http://www.w3.org/2000/svg">
<path d="M273.84 0.0130931C307.212 -0.208895 326.074 2.34888 354.745 10.9809C400.156 24.6528 432.497 42.563 465.944 72.5639C509.163 111.329 539.672 165.259 548.709 218.864C557.642 271.85 550.923 320.137 526.953 375.213C513.814 405.404 501.148 424.89 466.439 468.317C439.336 502.227 394.825 546.467 359.779 574.329C341.899 588.544 317.284 606.886 306.273 614.199C293.424 622.732 287.418 624.864 276.217 624.864C264.599 624.864 260.256 622.718 235.894 604.941C217.056 591.195 212.354 587.735 210.279 586.094C209.729 585.659 207.481 583.966 205.282 582.333C182.538 565.438 144.979 532.179 123.801 510.181C52.834 436.465 12.8443 366.616 2.82133 298.864C-1.65766 268.585 -0.821961 240.566 5.45902 210.364C12.845 174.847 33.0586 131.945 55.1426 104.918C88.4785 64.1236 134.143 32.662 184.779 15.6029C204.668 8.90201 230.982 2.6567 248.279 0.531648C249.93 0.32965 261.432 0.0950915 273.84 0.0130931ZM383.503 90.8363C380.042 88.7254 377.566 88.4726 374.088 89.8734C370.947 91.1384 369.135 94.3605 365.885 104.461C364.31 109.357 359.193 124.209 354.514 137.466C342.131 172.553 341.015 178.926 344.621 193.992C346.868 203.38 350.352 209.469 357.939 217.272C364.511 224.03 364.764 225.113 361.92 234.364C353.422 262.009 334.249 296.046 310.099 326.364C298.356 341.106 275.748 363.718 260.318 376.456L249.896 371.793C234.502 347.461 209.614 310.513 184.872 278.571C172.48 262.573 160.117 247.821 148.996 236.538C143.436 230.896 138.178 226.114 133.377 222.475C129.62 219.627 126.122 217.466 122.963 216.145C132.183 216.282 151.57 220.211 172.508 235.812L172.614 235.891L172.746 235.908C173.259 235.97 173.648 235.647 173.901 235.29C174.161 234.925 174.367 234.411 174.526 233.809C174.848 232.595 175.014 230.876 174.939 228.845C174.791 224.775 173.675 219.36 170.8 214.059C167.921 208.752 163.278 203.561 156.087 199.954C148.952 196.377 139.336 194.375 126.496 195.336C126.493 195.28 126.501 195.199 126.532 195.08C126.618 194.756 126.852 194.299 127.268 193.727C128.091 192.593 129.524 191.137 131.462 189.573C135.306 186.47 141.063 183.001 147.769 180.819C148.017 180.89 148.251 180.932 148.457 180.914C148.588 180.903 148.739 180.867 148.875 180.772C149.02 180.671 149.113 180.529 149.155 180.373C149.229 180.103 149.143 179.829 149.065 179.642C148.978 179.432 148.847 179.204 148.695 178.976C148.21 178.245 147.401 177.332 146.681 176.581C150.662 174.801 160.407 172.037 172.102 173.454L172.132 173.457L172.163 173.456C172.382 173.456 172.605 173.409 172.801 173.285C173.002 173.156 173.135 172.969 173.206 172.758C173.338 172.368 173.262 171.903 173.113 171.458C172.806 170.541 172.056 169.331 170.945 168.017C168.712 165.374 164.908 162.176 159.825 159.891C149.721 155.348 134.621 154.436 116.849 168.453C115.812 165.469 114.021 154.173 128.442 133.682L128.923 132.998L128.093 132.898C127.503 132.826 126.508 132.967 125.273 133.305C124.015 133.649 122.449 134.215 120.69 135.044C117.171 136.704 112.861 139.427 108.685 143.569C100.326 151.857 92.5345 165.798 92.6514 188.174C92.4728 189.461 91.6423 190.14 90.584 190.48C89.494 190.83 88.2178 190.793 87.377 190.644L87.3496 190.639L87.3233 190.637C80.5217 190.17 69.7909 191.082 59.6524 195.336C49.5038 199.595 39.916 207.22 35.503 220.186L35.3848 220.53L35.6768 220.747C35.9283 220.935 36.2245 220.975 36.4971 220.954C36.7659 220.932 37.0589 220.848 37.3623 220.734C37.9686 220.506 38.7465 220.107 39.6836 219.621C41.5765 218.64 44.2407 217.237 47.8711 215.875C54.9413 213.224 65.7068 210.72 81.5059 211.885C78.8847 213.878 71.986 218.961 67.5879 227.522C62.3928 237.634 60.6356 252.589 72.7832 273.256L72.8516 273.371L72.9678 273.438C73.7503 273.881 74.5152 273.977 75.2276 273.804C75.9258 273.634 76.5289 273.218 77.0303 272.716C78.0268 271.719 78.7239 270.283 79.0674 269.274L79.1036 269.169L79.0909 269.058C78.6395 264.987 79.4503 253.477 86.4141 240.433C86.8637 240.289 87.3946 240.5 87.9981 241.073C88.6366 241.679 89.1856 242.543 89.4913 243.156L90.4219 242.803C89.5256 239.476 90.2552 229.74 101.14 218.561C101.113 218.587 101.162 218.513 101.487 218.569C101.788 218.621 102.209 218.768 102.753 219.031C103.835 219.554 105.301 220.485 107.08 221.81C110.632 224.457 115.372 228.629 120.689 234.106C131.323 245.059 144.241 261.201 154.587 280.728C164.945 300.277 176.605 327.936 185.43 351.441C189.842 363.192 193.543 373.898 196.016 382.024C197.252 386.088 198.179 389.5 198.735 392.071C199.013 393.357 199.197 394.422 199.28 395.249C199.366 396.102 199.337 396.625 199.252 396.875C198.479 399.145 195.967 403.787 193.104 408.715C191.008 412.322 188.741 416.05 186.876 419.056C181.766 420.987 175.018 423.536 170.964 425.065C163.475 427.889 162.703 428.421 163.205 430.419C164.125 434.085 170.573 444.905 176.343 452.464C183.968 462.452 190.677 471.971 200 481.499L201.5 480.499L202.5 480L204.5 479L205.861 478.105L210.57 476.355C219.068 473.198 244.082 460.012 254.088 453.415C277.758 437.808 305.774 412.623 321.408 392.897C341.325 367.768 359.2 332.04 380.209 275.364C389.061 251.484 395.802 235.067 397.169 234.06C397.78 233.609 401.537 232.489 405.518 231.569C424.728 227.13 439.124 214.794 445.849 197.009C448.836 189.109 460.177 143.501 462.272 130.966C463.677 122.548 463.786 119.827 462.84 116.668C461.304 111.543 456.892 108.685 452.476 109.951C448.131 111.197 447.441 112.204 443.962 122.364C442.266 127.314 438.902 136.989 436.486 143.864C434.07 150.739 430.857 160.092 429.344 164.649C425.003 177.72 420.939 181.066 413.852 177.401C408.279 174.519 408.421 171.835 415.24 151.025C420.765 134.167 427.009 113.103 428.269 107.073C429.639 100.517 422.898 94.9466 415.88 96.8363C413.753 97.4093 411.559 98.4375 411.005 99.1205C410.451 99.8045 407.868 106.889 405.265 114.864C397.42 138.896 388.707 162.253 386.881 164.146C385.935 165.126 383.521 166.194 381.517 166.519C378.38 167.028 377.449 166.686 374.826 164.064C373.151 162.389 371.779 160.085 371.779 158.945C371.779 157.805 373.509 151.133 375.623 144.118C382.575 121.048 388.088 98.2271 387.386 95.4291C387.023 93.9832 385.276 91.9172 383.503 90.8363ZM415.925 332.848C408.319 330.472 395.885 330.295 387.885 332.447C360.157 339.903 344.153 371.747 353.398 401.062C356.795 411.836 361.041 420.17 369.651 432.973C376.423 443.041 392.101 461.864 393.715 461.864C395.96 461.863 411.257 447.918 421.579 436.463C445.612 409.792 454.059 384.873 446.641 362.535C444.116 354.931 441.186 350.406 434.851 344.329C428.247 337.993 423.844 335.321 415.925 332.848ZM394.279 354.788C400.806 353.176 409.885 355.541 415.574 360.337C426.13 369.238 425.83 385.262 414.923 395.116C410.368 399.231 405.601 400.85 398.019 400.858C381.148 400.876 370.121 383.391 377.525 368.364C380.666 361.989 387.479 356.468 394.279 354.788ZM266.136 109.441C257.669 107.268 241.367 107.495 231.982 109.919C220.319 112.931 211.443 118.177 201.652 127.845C194.298 135.106 192.355 137.766 188.48 145.864C182.316 158.746 180.359 168.209 181.055 181.767C181.62 192.775 183.73 201.284 188.499 211.792C196.05 228.431 215.928 252.596 241.279 275.95C254.885 288.485 258.526 291.069 260.83 289.836C261.832 289.299 266.42 284.024 271.026 278.113C291.205 252.218 304.707 226.898 311.407 202.384C314.762 190.107 315.701 170.522 313.452 159.698C308.41 135.43 289.617 115.47 266.136 109.441ZM240.279 135.249C252.744 132.218 264.006 135.076 272.854 143.516C280.979 151.267 283.232 156.753 283.259 168.864C283.278 177.49 282.987 178.982 280.095 185.086C275.853 194.042 269.113 201.081 260.911 205.122C255.223 207.924 253.089 208.41 245.14 208.707C236.851 209.017 235.345 208.78 229.821 206.301C222.018 202.799 214.756 195.081 211.765 187.111C208.515 178.446 209.188 166.694 213.449 157.684C218.979 145.995 228.364 138.147 240.279 135.249Z" fill="url(#paint0_linear_8_1012)"/>
<defs>
<linearGradient id="paint0_linear_8_1012" x1="54.5" y1="45.5" x2="482.5" y2="573" gradientUnits="userSpaceOnUse">
<stop stop-color="#FD512E"/>
<stop offset="1" stop-color="#FD4233"/>
</linearGradient>
</defs>
</svg>
