<svg width="380" height="508" viewBox="0 0 380 508" fill="none" xmlns="http://www.w3.org/2000/svg">
<path d="M18.5 167.5L180.006 56.4998C188.207 51.6746 192.805 51.5942 201.006 56.4998L309.506 128.624V115.5H342.506V150.56L363.5 165.434C368.463 168.742 380.006 174 380.006 190V220C379.562 229.241 377.209 230.607 368.006 224L189.506 107L10.0062 225.5C1.6448 230.253 -0.120188 228.647 0.00616569 221V196C0.00616569 179.5 15.3443 169.658 18.5 167.5Z" fill="#CD2FE2"/>
<path d="M263.006 221C274.506 211.5 267.006 203 255.506 203L115.5 203C104 203 102.5 204 97 205.5C91.5 207 78 217.5 78 217.5L59 230.5L38.0031 244.25L27.5046 251.125L22.2554 254.562C22.2554 254.562 20.7216 255.5 21 257C21.1856 258 23.6937 258 23.6937 258H30.3812H43.7562H70.5062H124.006L17.0062 337C10.895 341.517 8.5548 343.797 7.50617 348V396C6.99605 405.071 9.25968 407.822 19.0062 407.5H330.006C341.48 407.737 342.734 404.002 342.506 395.5V224L309.506 203V341.5H275.506H226.506H103.506C103.506 341.5 251.507 230.5 263.006 221Z" fill="#CD2FE2"/>
<path d="M303.373 79.5799C304.72 88.6266 313.066 92.3108 319.292 95.7955C321.489 97.024 323.6 98.1758 325.498 97.8932C327.396 97.6107 329.08 95.8957 330.823 94.077C335.766 88.9333 342.676 82.9759 341.329 73.9311C339.983 64.8863 328.589 60.0203 321.344 69.9905C311.509 62.5631 302.026 70.5332 303.373 79.5799Z" fill="#CD2FE2"/>
<path d="M321.211 33.1706C320.265 38.2982 324.085 41.8283 326.798 44.8585C327.755 45.9271 328.681 46.9386 329.757 47.1371C330.832 47.3356 332.058 46.7223 333.334 46.0637C336.951 44.2039 341.778 42.2687 342.724 37.1422C343.671 32.0156 338.426 27.285 332.676 31.322C328.745 25.4982 322.158 28.043 321.211 33.1706Z" fill="#CD2FE2"/>
<path d="M309.755 9.15616C311.213 11.6815 314.119 11.7974 316.373 12.1023C317.168 12.2096 317.929 12.3042 318.459 11.9983C318.989 11.6924 319.288 10.9867 319.592 10.2434C320.456 8.13957 321.808 5.56433 320.35 3.03954C318.892 0.514743 314.944 0.404886 313.962 4.20945C310.176 3.1576 308.297 6.63085 309.755 9.15616Z" fill="#CD2FE2"/>
<path d="M342.506 224V395.5C342.721 403.529 341.615 407.304 331.828 407.5H17C16.9858 407.506 16.9712 407.511 16.957 407.517C10.3715 407.401 7.9117 405.372 7.50391 399.997L103.5 341.5C103.503 341.499 103.506 341.498 103.509 341.497C103.507 341.499 103.506 341.5 103.506 341.5H309.506V203L342.506 224Z" fill="url(#paint0_linear_9_21)"/>
<path d="M23.0391 469.242C24.3151 469.242 25.5547 469.461 26.7578 469.898C27.9974 470.336 29.1823 470.974 30.3125 471.812C30.4948 471.995 30.6953 472.177 30.9141 472.359C31.0964 472.177 31.2969 471.995 31.5156 471.812C32.6458 470.974 33.8125 470.336 35.0156 469.898C36.2552 469.461 37.4948 469.242 38.7344 469.242C40.0104 469.242 41.25 469.461 42.4531 469.898C43.6927 470.336 44.8594 470.992 45.9531 471.867C47.0833 472.706 48.0677 473.836 48.9062 475.258C49.7812 476.68 50.2188 478.375 50.2188 480.344V491.992C50 494.18 48.7969 495.365 46.6094 495.547C45.5885 495.547 44.6953 495.219 43.9297 494.562C43.2005 493.87 42.8359 493.013 42.8359 491.992V480.781C42.8359 479.906 42.6719 479.177 42.3438 478.594C42.0156 477.974 41.651 477.5 41.25 477.172C40.849 476.807 40.4297 476.552 39.9922 476.406C39.5547 476.224 39.1172 476.133 38.6797 476.133C38.2422 476.133 37.8047 476.224 37.3672 476.406C36.9661 476.552 36.5651 476.807 36.1641 477.172C35.763 477.5 35.3984 477.974 35.0703 478.594C34.7422 479.177 34.5599 479.906 34.5234 480.781V491.992C34.3047 494.18 33.1016 495.365 30.9141 495.547C29.8932 495.547 29 495.219 28.2344 494.562C27.5052 493.87 27.1406 493.013 27.1406 491.992V480.781C27.1406 479.906 26.9766 479.177 26.6484 478.594C26.3203 477.974 25.9557 477.5 25.5547 477.172C25.1536 476.807 24.7344 476.552 24.2969 476.406C23.8594 476.224 23.4219 476.133 22.9844 476.133C22.5469 476.133 22.1094 476.224 21.6719 476.406C21.2708 476.552 20.8698 476.807 20.4688 477.172C20.0677 477.5 19.7031 477.974 19.375 478.594C19.0469 479.177 18.8646 479.906 18.8281 480.781V491.992C18.6458 494.18 17.4609 495.365 15.2734 495.547C14.2526 495.547 13.3594 495.219 12.5938 494.562C11.8646 493.87 11.5 493.013 11.5 491.992V480.344C11.5729 478.375 12.0286 476.68 12.8672 475.258C13.7057 473.836 14.6901 472.706 15.8203 471.867C16.9505 470.992 18.1172 470.336 19.3203 469.898C20.5599 469.461 21.7995 469.242 23.0391 469.242ZM67.3841 469.406C68.4049 469.406 69.2799 469.753 70.0091 470.445C70.7382 471.102 71.121 471.94 71.1575 472.961V478.484C71.121 479.979 71.2122 481.365 71.4309 482.641C71.6861 483.88 72.2695 484.992 73.1809 485.977C74.0924 486.961 75.2408 487.49 76.6263 487.562H91.2278V473.07C91.2278 472.049 91.5924 471.211 92.3216 470.555C93.0872 469.862 93.9804 469.516 95.0013 469.516C97.1888 469.698 98.3919 470.883 98.6106 473.07V490.898C98.6106 493.815 98.2096 496.568 97.4075 499.156C96.6783 501.453 95.4752 503.385 93.7981 504.953C92.1575 506.557 90.0611 507.432 87.5091 507.578H68.5872C67.6028 507.542 66.7643 507.177 66.0716 506.484C65.4153 505.828 65.069 505.008 65.0325 504.023C65.0325 503.003 65.3606 502.128 66.0169 501.398C66.7096 500.669 67.5664 500.286 68.5872 500.25H85.6497C87.0351 500.177 88.1835 499.648 89.095 498.664C90.0065 497.68 90.5898 496.531 90.845 495.219C90.8815 495.109 90.8997 495 90.8997 494.891H74.7669C72.2148 494.745 70.1002 493.888 68.4231 492.32C66.7825 490.716 65.5976 488.766 64.8684 486.469C64.1757 484.172 63.8111 481.729 63.7747 479.141V472.961C63.8111 471.977 64.1757 471.156 64.8684 470.5C65.5611 469.807 66.3997 469.443 67.3841 469.406ZM150.988 461.75C151.973 461.786 152.811 462.151 153.504 462.844C154.196 463.5 154.561 464.32 154.598 465.305V470.062H171.551C174.103 470.099 176.199 470.828 177.84 472.25C179.517 473.635 180.702 475.203 181.394 476.953C182.124 478.74 182.488 480.581 182.488 482.477H182.543V491.992C182.543 493.013 182.16 493.87 181.394 494.562C180.665 495.219 179.79 495.547 178.769 495.547C176.582 495.365 175.379 494.18 175.16 491.992V482.422C175.16 481.729 175.014 481 174.723 480.234C174.467 479.469 174.084 478.812 173.574 478.266C173.064 477.682 172.462 477.391 171.769 477.391H154.598V492.102C154.379 494.289 153.176 495.474 150.988 495.656C149.967 495.656 149.074 495.328 148.308 494.672C147.579 493.979 147.215 493.122 147.215 492.102V465.305C147.251 464.284 147.634 463.445 148.363 462.789C149.092 462.096 149.967 461.75 150.988 461.75ZM207.474 494.891C204.265 494.781 201.841 494.034 200.2 492.648C198.56 491.227 197.375 489.641 196.646 487.891C195.916 486.104 195.552 484.299 195.552 482.477C195.552 480.581 195.898 478.758 196.591 477.008C197.32 475.221 198.505 473.635 200.146 472.25C201.823 470.828 203.937 470.099 206.489 470.062H224.208C226.76 470.099 228.857 470.828 230.497 472.25C232.174 473.635 233.359 475.221 234.052 477.008C234.781 478.758 235.146 480.581 235.146 482.477C235.146 484.299 234.781 486.104 234.052 487.891C233.323 489.641 232.138 491.227 230.497 492.648C228.857 494.034 226.432 494.781 223.224 494.891H207.474ZM206.271 477.391C205.578 477.391 204.976 477.682 204.466 478.266C203.956 478.812 203.573 479.469 203.318 480.234C203.099 480.964 202.989 481.693 202.989 482.422C202.989 483.188 203.099 483.953 203.318 484.719C203.573 485.448 203.956 486.104 204.466 486.688C204.976 487.234 205.578 487.526 206.271 487.562H224.427C225.12 487.526 225.721 487.234 226.232 486.688C226.742 486.104 227.107 485.448 227.325 484.719C227.581 483.953 227.708 483.188 227.708 482.422C227.708 481.693 227.581 480.964 227.325 480.234C227.107 479.469 226.742 478.812 226.232 478.266C225.721 477.682 225.12 477.391 224.427 477.391H206.271ZM265.6 495.82C263.704 495.82 261.827 495.602 259.967 495.164C258.144 494.727 256.394 494.089 254.717 493.25C253.04 492.375 251.564 491.227 250.288 489.805C249.011 488.383 248.319 486.688 248.209 484.719V482.422V473.07C248.209 472.049 248.574 471.211 249.303 470.555C250.069 469.862 250.962 469.516 251.983 469.516C254.17 469.698 255.355 470.883 255.538 473.07V475.477V483.023C255.61 484.154 256.03 485.102 256.795 485.867C257.597 486.596 258.472 487.18 259.42 487.617C260.405 488.055 261.407 488.383 262.428 488.602C263.485 488.82 264.543 488.93 265.6 488.93C266.657 488.93 267.696 488.82 268.717 488.602C269.774 488.383 270.777 488.055 271.725 487.617C272.709 487.18 273.584 486.596 274.35 485.867C275.152 485.102 275.59 484.154 275.663 483.023V475.477V473.07C275.663 472.049 276.027 471.211 276.756 470.555C277.522 469.862 278.415 469.516 279.436 469.516C281.623 469.698 282.827 470.883 283.045 473.07V482.422V484.719C282.936 486.688 282.225 488.383 280.913 489.805C279.636 491.227 278.16 492.375 276.483 493.25C274.806 494.089 273.038 494.727 271.178 495.164C269.355 495.602 267.496 495.82 265.6 495.82ZM295.945 473.727C295.945 472.706 296.291 471.849 296.984 471.156C297.713 470.427 298.588 470.062 299.609 470.062H330.125C331.146 470.062 332.021 470.409 332.75 471.102C333.442 471.831 333.789 472.706 333.789 473.727C333.789 474.747 333.497 475.513 332.914 476.023C332.367 476.497 331.82 476.898 331.273 477.227L312.734 487.562H330.125C331.146 487.562 332.021 487.909 332.75 488.602C333.442 489.331 333.789 490.206 333.789 491.227C333.789 492.247 333.424 493.122 332.695 493.852C332.002 494.544 331.146 494.891 330.125 494.891H299.609C298.588 494.891 297.731 494.526 297.039 493.797C296.31 493.104 295.945 492.247 295.945 491.227C295.945 490.206 296.31 489.331 297.039 488.602C297.185 488.456 297.33 488.328 297.476 488.219L297.586 488.164L317.109 477.391H299.609C298.588 477.391 297.731 477.026 297.039 476.297C296.31 475.604 295.945 474.747 295.945 473.727Z" fill="#4B4B4B"/>
<defs>
<linearGradient id="paint0_linear_9_21" x1="41" y1="203" x2="379.5" y2="203" gradientUnits="userSpaceOnUse">
<stop stop-color="#B026C2"/>
<stop offset="1" stop-color="#CD2FE2"/>
</linearGradient>
</defs>
</svg>
